<svg version="1.1"
  xmlns="http://www.w3.org/2000/svg"
  xmlns:xlink="http://www.w3.org/1999/xlink" viewBox="0 0 252 252">
  <g fill="none" fill-rule="nonzero" stroke="none" stroke-width="1" stroke-linecap="butt" stroke-linejoin="miter" stroke-miterlimit="10" stroke-dasharray="" stroke-dashoffset="0" font-family="none" font-weight="none" font-size="none" text-anchor="none" style="mix-blend-mode: normal">
    <path d="M0,252v-252h252v252z" fill="#ce2029"></path>
    <g fill="#ffffff">
      <path d="M184.92715,32.42285l-4.4543,4.4543l26.12285,26.12285h-99.4957c-1.136,-0.01607 -2.19266,0.58078 -2.76535,1.562c-0.57269,0.98122 -0.57269,2.19478 0,3.176c0.57269,0.98122 1.62934,1.57807 2.76535,1.562h99.4957l-26.12285,26.12285l4.4543,4.4543l31.22315,-31.22314c0.22737,-0.17272 0.43021,-0.37556 0.60293,-0.60293l1.90107,-1.90108l-1.91338,-1.91338c-0.17126,-0.22479 -0.37198,-0.42552 -0.59678,-0.59678zM34.65,63c-1.7397,0 -3.15,1.4103 -3.15,3.15c0,1.7397 1.4103,3.15 3.15,3.15c1.7397,0 3.15,-1.4103 3.15,-3.15c0,-1.7397 -1.4103,-3.15 -3.15,-3.15zM53.55,63c-1.7397,0 -3.15,1.4103 -3.15,3.15c0,1.7397 1.4103,3.15 3.15,3.15c1.7397,0 3.15,-1.4103 3.15,-3.15c0,-1.7397 -1.4103,-3.15 -3.15,-3.15zM69.3,63c-1.7397,0 -3.15,1.4103 -3.15,3.15c0,1.7397 1.4103,3.15 3.15,3.15c1.7397,0 3.15,-1.4103 3.15,-3.15c0,-1.7397 -1.4103,-3.15 -3.15,-3.15zM81.9,63c-1.7397,0 -3.15,1.4103 -3.15,3.15c0,1.7397 1.4103,3.15 3.15,3.15c1.7397,0 3.15,-1.4103 3.15,-3.15c0,-1.7397 -1.4103,-3.15 -3.15,-3.15zM94.5,63c-1.7397,0 -3.15,1.4103 -3.15,3.15c0,1.7397 1.4103,3.15 3.15,3.15c1.7397,0 3.15,-1.4103 3.15,-3.15c0,-1.7397 -1.4103,-3.15 -3.15,-3.15zM81.9,170.1c-7.58271,0 -13.95941,5.43498 -15.43008,12.6h-9.76992c-1.136,-0.01607 -2.19266,0.58078 -2.76535,1.562c-0.57269,0.98122 -0.57269,2.19478 0,3.176c0.57269,0.98122 1.62934,1.57807 2.76535,1.562h9.76992c1.47067,7.16502 7.84737,12.6 15.43008,12.6c7.58271,0 13.95941,-5.43498 15.43008,-12.6h13.23984c1.47067,7.16502 7.84737,12.6 15.43008,12.6c7.58271,0 13.95941,-5.43498 15.43008,-12.6h13.23984c1.47067,7.16502 7.84737,12.6 15.43008,12.6c7.58271,0 13.95941,-5.43498 15.43008,-12.6h9.76992c1.136,0.01607 2.19266,-0.58078 2.76535,-1.562c0.57269,-0.98122 0.57269,-2.19478 0,-3.176c-0.57269,-0.98122 -1.62934,-1.57807 -2.76535,-1.562h-9.76992c-1.47067,-7.16502 -7.84737,-12.6 -15.43008,-12.6c-7.58271,0 -13.95941,5.43498 -15.43008,12.6h-13.23984c-1.47067,-7.16502 -7.84737,-12.6 -15.43008,-12.6c-7.58271,0 -13.95941,5.43498 -15.43008,12.6h-13.23984c-1.47067,-7.16502 -7.84737,-12.6 -15.43008,-12.6zM81.9,176.4c5.15913,0 9.26796,4.04752 9.41924,9.16699c-0.01736,0.19033 -0.01736,0.38184 0,0.57217c-0.15445,5.11652 -4.2622,9.16084 -9.41924,9.16084c-5.15913,0 -9.26796,-4.04752 -9.41924,-9.16699c0.01736,-0.19033 0.01736,-0.38184 0,-0.57217c0.15445,-5.11652 4.2622,-9.16084 9.41924,-9.16084zM126,176.4c5.15913,0 9.26796,4.04752 9.41924,9.16699c-0.01736,0.19033 -0.01736,0.38184 0,0.57217c-0.15445,5.11652 -4.2622,9.16084 -9.41924,9.16084c-5.15913,0 -9.26796,-4.04752 -9.41924,-9.16699c0.01736,-0.19033 0.01736,-0.38184 0,-0.57217c0.15445,-5.11652 4.2622,-9.16084 9.41924,-9.16084zM170.1,176.4c5.15913,0 9.26796,4.04752 9.41924,9.16699c-0.01736,0.19033 -0.01736,0.38184 0,0.57217c-0.15445,5.11652 -4.2622,9.16084 -9.41924,9.16084c-5.15913,0 -9.26796,-4.04752 -9.41924,-9.16699c0.01736,-0.19033 0.01736,-0.38184 0,-0.57217c0.15445,-5.11652 4.2622,-9.16084 9.41924,-9.16084zM31.5,182.7c-1.7397,0 -3.15,1.4103 -3.15,3.15c0,1.7397 1.4103,3.15 3.15,3.15c1.7397,0 3.15,-1.4103 3.15,-3.15c0,-1.7397 -1.4103,-3.15 -3.15,-3.15zM44.1,182.7c-1.7397,0 -3.15,1.4103 -3.15,3.15c0,1.7397 1.4103,3.15 3.15,3.15c1.7397,0 3.15,-1.4103 3.15,-3.15c0,-1.7397 -1.4103,-3.15 -3.15,-3.15zM207.9,182.7c-1.7397,0 -3.15,1.4103 -3.15,3.15c0,1.7397 1.4103,3.15 3.15,3.15c1.7397,0 3.15,-1.4103 3.15,-3.15c0,-1.7397 -1.4103,-3.15 -3.15,-3.15zM220.5,182.7c-1.7397,0 -3.15,1.4103 -3.15,3.15c0,1.7397 1.4103,3.15 3.15,3.15c1.7397,0 3.15,-1.4103 3.15,-3.15c0,-1.7397 -1.4103,-3.15 -3.15,-3.15z"></path>
    </g>

  </g>
</svg>
