<svg xmlns="http://www.w3.org/2000/svg"
  xmlns:xlink="http://www.w3.org/1999/xlink" version="1.1"
   viewBox="0 0 200 200" height="640" width="1280" fill="#f5cb5c">
  <g fill="#f5cb5c" fill-rule="nonzero" stroke="none" stroke-width="1" stroke-linecap="butt" stroke-linejoin="miter" stroke-miterlimit="10" stroke-dasharray="" stroke-dashoffset="0" font-family="none" font-weight="none" font-size="none" text-anchor="none" style="mix-blend-mode: normal">
    <path d="M 0 1280 v -1280 h 200 v 200 z" fill="#f5cb5c"/>
    <g fill="#333533">
      <g id="surface1">
        <path d="M 96 0 c -7.1 0 -12.9 5 -14.6 11.5 h -46.8 c -6.3 0 -11.5 5.2 -11.5 11.5 v 149.8 c 0 6.3 5.2 11.5 11.5 11.5 h 122.9 c 6.3 0 11.5 -5.2 11.5 -11.5 v -149.8 c 0 -6.3 -5.2 -11.5 -11.5 -11.5 h -30.5 c -0.1 0 -0.2 0 -0.2 0 h -16.1 c -1.7 -6.6 -7.5 -11.5 -14.6 -11.5 z M 96 7.7 c 4.3 0 7.7 3.4 7.7 7.7 c 0 2.1 1.7 3.8 3.8 3.8 h 15.4 v 11.5 h -53.8 v -11.5 h 15.4 c 2.1 0 3.8 -1.7 3.8 -3.8 c 0 -4.3 3.4 -7.7 7.7 -7.7 z M 137.5 65.4 c 1 -0.2 2 -0.1 2.9 0.5 c 1.8 1.2 2.3 3.6 1.1 5.4 l -15.4 23 c -0.1 0.2 -0.3 0.3 -0.5 0.5 c 0 0 0 0.1 0 0.1 c 0 0 -0.1 0 -0.1 0 c -0.3 0.3 -0.7 0.5 -1.1 0.7 c -0.1 0 -0.1 0.1 -0.2 0.1 c -0.4 0.1 -0.9 0.2 -1.3 0.2 c -0.4 0 -0.9 -0.1 -1.3 -0.2 c -0.1 0 -0.2 -0.2 -0.4 -0.2 c -0.1 -0.1 -0.3 0 -0.5 -0.1 c -0.1 -0.1 -0.1 -0.3 -0.2 -0.4 c -0.1 -0.1 -0.3 0 -0.4 -0.1 l -11.5 -11.5 c -1.5 -1.5 -1.5 -4 0 -5.5 c 1.5 -1.5 4 -1.5 5.5 0 l 8.2 8.3 l 12.7 -19.2 c 0.6 -0.9 1.6 -1.4 2.5 -1.6 z M 53.8 76.8 h 38.4 c 2.1 0 3.8 1.7 3.8 3.8 c 0 2.1 -1.7 3.8 -3.8 3.8 h -38.4 c -2.1 0 -3.8 -1.7 -3.8 -3.8 c 0 -2.1 1.7 -3.8 3.8 -3.8 z M 111.4 115.2 c 1 0 2 0.3 2.8 1.1 l 8.8 8.9 l 8.8 -8.9 c 1.5 -1.5 4 -1.5 5.5 0 c 1.5 1.5 1.5 4 0 5.5 l -8.9 8.8 l 8.9 8.8 c 1.5 1.5 1.5 4 0 5.5 c -0.8 0.8 -1.8 1.1 -2.8 1.1 c -1 0 -2 -0.3 -2.8 -1.1 l -8.8 -8.9 l -8.8 8.9 c -0.8 0.8 -1.8 1.1 -2.8 1.1 c -1 0 -2 -0.3 -2.8 -1.1 c -1.5 -1.5 -1.5 -4 0 -5.5 l 8.9 -8.8 l -8.9 -8.8 c -1.5 -1.5 -1.5 -4 0 -5.5 c 0.8 -0.8 1.8 -1.1 2.8 -1.1 z M 53.8 126.7 h 38.4 c 2.1 0 3.8 1.7 3.8 3.8 c 0 2.1 -1.7 3.8 -3.8 3.8 h -38.4 c -2.1 0 -3.8 -1.7 -3.8 -3.8 c 0 -2.1 1.7 -3.8 3.8 -3.8 z"/>
      </g>
    </g>
  </g>
</svg>
